PathFileType	4	(X/Y/Z)	/Users/itak/Documents/Research/Walk-IL/dataset/trc/00181_00008.trc
DataRate	CameraRate	NumFrames	NumMarkers	Units	OrigDataRate	OrigDataStartFrame	OrigNumFrames
100.000000	100.000000	4	53	mm	100.000000	496	794
Frame#	Time	RPSI			LPSI			L3			STRN			T10			C7			CLAV			RBAK			LBAK			LSHO			LUPA			LAEL			LAOL			LWTS			LWPS			LFRA			LIFD			LHPS			LHTS			RSHO			RUPA			RAEL			RAOL			RWTS			RWPS			RFRA			RIFD			RHTS			RHPS			RBHD			LFHD			RFHD			LBHD			LHIP			RHIP			RASI			LASI			LKNE			LTHI			LANK			LTIP			LTOE			LMT1			LMT5			LHEE			RKNE			RTHI			RANK			RTIP			RTOE			RMT1			RMT5			RHEE			
		X1	Y1	Z1	X2	Y2	Z2	X3	Y3	Z3	X4	Y4	Z4	X5	Y5	Z5	X6	Y6	Z6	X7	Y7	Z7	X8	Y8	Z8	X9	Y9	Z9	X10	Y10	Z10	X11	Y11	Z11	X12	Y12	Z12	X13	Y13	Z13	X14	Y14	Z14	X15	Y15	Z15	X16	Y16	Z16	X17	Y17	Z17	X18	Y18	Z18	X19	Y19	Z19	X20	Y20	Z20	X21	Y21	Z21	X22	Y22	Z22	X23	Y23	Z23	X24	Y24	Z24	X25	Y25	Z25	X26	Y26	Z26	X27	Y27	Z27	X28	Y28	Z28	X29	Y29	Z29	X30	Y30	Z30	X31	Y31	Z31	X32	Y32	Z32	X33	Y33	Z33	X34	Y34	Z34	X35	Y35	Z35	X36	Y36	Z36	X37	Y37	Z37	X38	Y38	Z38	X39	Y39	Z39	X40	Y40	Z40	X41	Y41	Z41	X42	Y42	Z42	X43	Y43	Z43	X44	Y44	Z44	X45	Y45	Z45	X46	Y46	Z46	X47	Y47	Z47	X48	Y48	Z48	X49	Y49	Z49	X50	Y50	Z50	X51	Y51	Z51	X52	Y52	Z52	X53	Y53	Z53	

497	4.96	-696.4691772460938	1046.382568359375	-560.2247314453125	-608.890380859375	1040.755737304688	-476.83544921875	-656.1000366210938	1081.238647460938	-520.3934936523438	-821.5637817382812	1290.72607421875	-316.0566711425781	-627.677734375	1240.483276367188	-539.9456176757812	-648.8106079101562	1506.989624023438	-466.5502319335938	-788.2819213867188	1403.52880859375	-323.1351928710938	-695.6196899414062	1343.556762695312	-598.4490356445312	-571.262939453125	1474.90185546875	-408.9324645996094	-563.3311157226562	1456.3232421875	-301.7513427734375	-483.9428100585938	1325.405029296875	-291.6502685546875	-466.4560241699219	1110.982543945312	-287.4798278808594	-501.33349609375	1097.27880859375	-368.6079711914062	-542.1929931640625	875.9127197265625	-213.6112213134766	-467.7828369140625	856.8273315429688	-265.5167541503906	-458.5387878417969	1000.075256347656	-271.8585205078125	-564.5240478515625	690.4819946289062	-215.3009948730469	-482.2875061035156	786.3425903320312	-251.0713653564453	-529.0475463867188	796.4141845703125	-196.9129486083984	-822.345458984375	1503.537231445312	-538.84033203125	-864.9335327148438	1448.282836914062	-605.0774536132812	-942.4541015625	1181.5361328125	-691.9345703125	-875.1151733398438	1150.95703125	-628.400634765625	-1089.197998046875	981.5203857421875	-595.8851318359375	-1068.249633789062	960.3456420898438	-679.8446655273438	-990.7647094726562	1118.420654296875	-692.5405883789062	-1135.977783203125	797.74169921875	-574.8031005859375	-1138.785400390625	897.2430419921875	-589.469482421875	-1108.61474609375	884.9524536132812	-662.5550537109375	-739.375732421875	1668.316040039062	-467.93994140625	-695.4053955078125	1718.7978515625	-260.3143005371094	-806.8963623046875	1736.33203125	-320.7269287109375	-616.156982421875	1656.87353515625	-409.5935363769531	-591.9491577148438	981.9866943359375	-317.9161987304688	-892.6111450195312	1010.473205566406	-538.4432983398438	-911.49072265625	1037.77685546875	-441.7032165527344	-719.2859497070312	1025.792602539062	-270.8898010253906	-787.8679809570312	517.74658203125	-168.6692047119141	-719.24658203125	651.8931274414062	-197.7532196044922	-811.69677734375	52.08351135253906	-283.7725830078125	-789.0072021484375	283.7218017578125	-217.7877960205078	-916.168212890625	78.62022399902344	-99.13899993896484	-941.3858032226562	68.10338592529297	-160.6377868652344	-818.4057006835938	53.48648452758789	-170.1836395263672	-852.9613647460938	54.65166091918945	-357.4720153808594	-866.576416015625	510.2768249511719	-546.59619140625	-930.595947265625	778.6241455078125	-513.1408081054688	-765.6970825195312	35.20112228393555	-656.1390991210938	-855.422607421875	387.1210632324219	-540.5144653320312	-916.2034301757812	40.45668411254883	-488.568603515625	-847.1331787109375	42.54809951782227	-487.6553955078125	-874.59228515625	30.27824783325195	-615.5558471679688	-682.7119140625	39.32429885864258	-633.2453002929688	
498	4.97	-702.5975952148438	1044.982421875	-554.481201171875	-614.3927612304688	1039.056396484375	-471.9485168457031	-661.7371215820312	1079.587036132812	-515.1593627929688	-825.6094360351562	1288.28125	-308.4462280273438	-633.9539794921875	1239.256469726562	-534.5758056640625	-654.5597534179688	1505.399047851562	-459.7451171875	-792.4879150390625	1401.1982421875	-315.2158813476562	-702.8324584960938	1342.578002929688	-591.9005737304688	-576.4224853515625	1472.923217773438	-403.1063537597656	-567.2833251953125	1453.799926757812	-296.0768737792969	-488.3816223144531	1322.502319335938	-287.3929138183594	-471.8197937011719	1107.989379882812	-284.0906066894531	-507.902099609375	1094.549926757812	-364.787841796875	-548.2291259765625	873.4559936523438	-209.2797088623047	-474.6221008300781	853.82666015625	-262.0160217285156	-464.3997802734375	997.0294799804688	-268.6383056640625	-571.7705078125	688.1687622070312	-210.6952667236328	-489.3497924804688	783.4406127929688	-247.3264617919922	-535.5380859375	793.8495483398438	-192.7330780029297	-829.0475463867188	1502.15869140625	-530.0593872070312	-872.5449829101562	1447.13330078125	-595.9224853515625	-951.7083129882812	1180.744140625	-682.417724609375	-883.2493286132812	1150.123291015625	-620.0328979492188	-1097.900390625	980.8915405273438	-585.2506103515625	-1077.895629882812	959.8591918945312	-669.5125732421875	-1000.164855957031	1117.775756835938	-682.642578125	-1145.087524414062	797.20361328125	-564.1747436523438	-1147.71044921875	896.7780151367188	-578.534912109375	-1118.322631835938	884.5707397460938	-652.0196533203125	-745.2745361328125	1665.644409179688	-460.8753967285156	-698.5819091796875	1717.35400390625	-254.2061004638672	-810.841796875	1734.494140625	-313.1343383789062	-621.313232421875	1654.593505859375	-404.144775390625	-596.2464599609375	980.1140747070312	-313.1673583984375	-898.3728637695312	1008.895385742188	-531.0360107421875	-916.6846923828125	1035.962890625	-434.1050720214844	-723.0371704101562	1024.288940429688	-265.2121887207031	-791.7835693359375	516.6679077148438	-162.7843170166016	-722.0245971679688	649.9317626953125	-192.1212615966797	-830.2548828125	47.6776008605957	-256.2565612792969	-799.3833618164062	281.6419982910156	-201.8613128662109	-929.6497192382812	84.56110382080078	-70.67594146728516	-956.50048828125	72.29883575439453	-131.1302642822266	-834.3886108398438	53.75920486450195	-142.7413330078125	-872.8237915039062	48.57491302490234	-329.0222473144531	-868.6415405273438	509.3536071777344	-542.9599609375	-935.2531127929688	777.4963989257812	-505.9673461914062	-765.5564575195312	35.65087509155273	-655.7767944335938	-856.7000122070312	386.3095397949219	-537.6991577148438	-916.2696533203125	40.28565979003906	-488.422607421875	-847.199951171875	42.35343170166016	-487.4185485839844	-874.513916015625	30.50144958496094	-615.4364013671875	-682.6178588867188	39.43967056274414	-632.8905029296875	
499	4.98	-708.6898193359375	1043.431274414062	-548.5596313476562	-619.8731689453125	1037.172607421875	-466.861328125	-667.3010864257812	1077.727416992188	-509.7720947265625	-829.589599609375	1285.70556640625	-300.7122192382812	-640.1240234375	1237.88623046875	-528.9904174804688	-660.1549072265625	1503.693115234375	-452.7312927246094	-796.633056640625	1398.714599609375	-307.1909790039062	-709.8849487304688	1341.453247070312	-585.1612548828125	-581.4749755859375	1470.808349609375	-397.0406799316406	-571.1715087890625	1451.119995117188	-290.1778869628906	-492.8372497558594	1319.414794921875	-282.8965759277344	-477.2734375	1104.824462890625	-280.5513916015625	-514.5850830078125	1091.67431640625	-360.7901916503906	-554.3233032226562	870.7854614257812	-204.9048156738281	-481.5552673339844	850.6463012695312	-258.486328125	-470.3556213378906	993.8033447265625	-265.3184204101562	-579.0521240234375	685.6265869140625	-206.1328277587891	-496.4687194824219	780.3577270507812	-243.5768890380859	-542.09228515625	791.0610961914062	-188.5575103759766	-835.573974609375	1500.635009765625	-521.1343383789062	-879.9578857421875	1445.84228515625	-586.622314453125	-960.6839599609375	1179.79931640625	-672.78564453125	-891.173095703125	1149.141357421875	-611.511962890625	-1106.209838867188	980.0315551757812	-574.5128173828125	-1087.15576171875	959.1567993164062	-659.0734252929688	-1009.23828125	1116.949340820312	-672.6398315429688	-1153.74462890625	796.4280395507812	-553.4209594726562	-1156.207641601562	896.0661010742188	-567.4827880859375	-1127.611083984375	883.9548950195312	-641.3637084960938	-751.0463256835938	1662.841796875	-453.6767883300781	-701.6644287109375	1715.7939453125	-247.9966278076172	-814.6512451171875	1732.56005859375	-305.4571228027344	-626.3765869140625	1652.142333984375	-398.5462951660156	-600.578369140625	977.98291015625	-308.1921691894531	-904.0734252929688	1007.249755859375	-523.4322509765625	-921.827880859375	1034.065063476562	-426.3392333984375	-726.7820434570312	1022.528564453125	-259.2583618164062	-795.5263671875	515.2908325195312	-157.0862579345703	-724.7222290039062	647.6004638671875	-186.6371307373047	-847.6486206054688	44.39067077636719	-228.5442047119141	-809.0994262695312	279.9646606445312	-185.9977111816406	-941.8245239257812	91.26678466796875	-42.53309631347656	-970.2703857421875	77.35537719726562	-101.8752593994141	-849.1607055664062	55.01912307739258	-115.3213195800781	-891.5450439453125	43.66128921508789	-300.3153381347656	-870.7642211914062	508.4360656738281	-539.2952880859375	-939.8831787109375	776.3856201171875	-498.7873229980469	-765.4055786132812	36.06915664672852	-655.4262084960938	-858.03564453125	385.501708984375	-534.9127807617188	-916.3367309570312	40.1635856628418	-488.309326171875	-847.2625122070312	42.19034957885742	-487.2195434570312	-874.451416015625	30.67133712768555	-615.3377685546875	-682.5281982421875	39.57218933105469	-632.5474853515625	
500	4.99	-714.7329711914062	1041.750732421875	-542.4440307617188	-625.321044921875	1035.123413085938	-461.5565185546875	-672.8172607421875	1075.679565429688	-504.2098083496094	-833.5056762695312	1283.028930664062	-292.8463439941406	-646.1891479492188	1236.366333007812	-523.1796875	-665.5863037109375	1501.875122070312	-445.5238647460938	-800.7092895507812	1396.103271484375	-299.0685119628906	-716.7594604492188	1340.180297851562	-578.2335815429688	-586.4168090820312	1468.56982421875	-390.7467651367188	-574.9901733398438	1448.304443359375	-284.0647277832031	-497.2849426269531	1316.167724609375	-278.1766967773438	-482.7877807617188	1101.51513671875	-276.8730163574219	-521.364501953125	1088.67236328125	-356.6142578125	-560.4495849609375	867.9230346679688	-200.4772186279297	-488.5511169433594	847.3088989257812	-254.9319458007812	-476.3875427246094	990.4171142578125	-261.9005126953125	-586.3591918945312	682.88330078125	-201.5852508544922	-503.6237487792969	777.118896484375	-239.8277740478516	-548.6689453125	788.0778198242188	-184.3720092773438	-841.9099731445312	1498.971435546875	-512.0858154296875	-887.1528930664062	1444.409301757812	-577.1998291015625	-969.3800048828125	1178.702880859375	-663.0424194335938	-898.904296875	1147.97314453125	-602.8458251953125	-1114.125244140625	978.9426879882812	-563.6709594726562	-1096.032592773438	958.2427978515625	-648.5288696289062	-1017.98779296875	1115.943359375	-662.5333251953125	-1161.931396484375	795.4136962890625	-542.5430297851562	-1164.271850585938	895.1036376953125	-556.3115234375	-1136.477905273438	883.106689453125	-630.5858764648438	-756.683349609375	1659.941528320312	-446.3359069824219	-704.6610107421875	1714.1162109375	-241.6610565185547	-818.3423461914062	1730.532958984375	-297.6809997558594	-631.3416137695312	1649.552368164062	-392.7811584472656	-604.9361572265625	975.6065673828125	-302.9694213867188	-909.7249145507812	1005.547058105469	-515.6275634765625	-926.9191284179688	1032.095825195312	-418.4070739746094	-730.5266723632812	1020.5029296875	-253.0165252685547	-799.122314453125	513.6571655273438	-151.5154876708984	-727.398193359375	644.93017578125	-181.3103485107422	-863.8003540039062	42.20930099487305	-200.8764801025391	-818.139892578125	278.7073974609375	-170.2678833007812	-952.6690673828125	98.66344451904297	-14.90407752990723	-982.6769409179688	83.20671081542969	-73.0765380859375	-862.6798095703125	57.21298217773438	-88.15121459960938	-909.0465087890625	39.91429901123047	-271.6021423339844	-872.9672241210938	507.5146789550781	-535.5846557617188	-944.39306640625	775.1679077148438	-491.7898559570312	-765.25	36.46181488037109	-655.0831909179688	-859.4483642578125	384.6864929199219	-532.1309204101562	-916.4010009765625	40.07666397094727	-488.2135925292969	-847.3233032226562	42.05441284179688	-487.0506591796875	-874.4054565429688	30.7940559387207	-615.2575073242188	-682.4285888671875	39.74174499511719	-632.2118530273438	
